name rise43.5482peak65.4966fall89.1036.mot
datacolumns 19
datarows 21
range 3.28164900000000 3.31498500000000
endheader
time	ground_force1_vx	ground_force1_vy	ground_force1_vz	ground_force1_px	ground_force1_py	ground_force1_pz	ground_force2_vx	ground_force2_vy	ground_force2_vz	ground_force2_px	ground_force2_py	ground_force2_pz	ground_torque1_x	ground_torque1_y	ground_torque1_z	ground_torque2_x	ground_torque2_y	ground_torque2_z	
3.28164900000000	15.66951000000000	704.32771000000002	41.04491700000000	0.19070900000000	0.00000000000000	0.13443500000000	0.00000000000000	0.00000000000000	0.00000000000000	0.00000000000000	0.00000000000000	0.00000000000000	0.00000000000000	11.22511900000000	0.00000000000000	0.00000000000000	0.00000000000000	0.00000000000000	
3.28331500000000	15.26352500000000	705.03779999999995	41.11641600000000	0.18973000000000	0.00000000000000	0.13441500000000	0.00000000000000	0.00000000000000	0.00000000000000	0.00000000000000	0.00000000000000	0.00000000000000	0.00000000000000	11.31469300000000	0.00000000000000	0.00000000000000	0.00000000000000	0.00000000000000	
3.28498600000000	14.84527100000000	705.76979900000003	41.18978200000000	0.18874200000000	0.00000000000000	0.13439700000000	0.00000000000000	0.00000000000000	0.00000000000000	0.00000000000000	0.00000000000000	0.00000000000000	0.00000000000000	11.40808600000000	0.00000000000000	0.00000000000000	0.00000000000000	0.00000000000000	
3.28664900000000	14.41488500000000	706.52187100000003	41.26464900000000	0.18774500000000	0.00000000000000	0.13437800000000	0.00000000000000	0.00000000000000	0.00000000000000	0.00000000000000	0.00000000000000	0.00000000000000	0.00000000000000	11.50516500000000	0.00000000000000	0.00000000000000	0.00000000000000	0.00000000000000	
3.28831300000000	13.97253700000000	707.29225899999994	41.34066700000000	0.18673900000000	0.00000000000000	0.13436000000000	0.00000000000000	0.00000000000000	0.00000000000000	0.00000000000000	0.00000000000000	0.00000000000000	0.00000000000000	11.60579500000000	0.00000000000000	0.00000000000000	0.00000000000000	0.00000000000000	
3.28998700000000	13.51842900000000	708.07929100000001	41.41749900000000	0.18572700000000	0.00000000000000	0.13434100000000	0.00000000000000	0.00000000000000	0.00000000000000	0.00000000000000	0.00000000000000	0.00000000000000	0.00000000000000	11.70983900000000	0.00000000000000	0.00000000000000	0.00000000000000	0.00000000000000	
3.29164600000000	13.05279400000000	708.88138100000003	41.49482100000000	0.18470700000000	0.00000000000000	0.13432200000000	0.00000000000000	0.00000000000000	0.00000000000000	0.00000000000000	0.00000000000000	0.00000000000000	0.00000000000000	11.81716000000000	0.00000000000000	0.00000000000000	0.00000000000000	0.00000000000000	
3.29331300000000	12.57589600000000	709.69704000000002	41.57232800000000	0.18368200000000	0.00000000000000	0.13430400000000	0.00000000000000	0.00000000000000	0.00000000000000	0.00000000000000	0.00000000000000	0.00000000000000	0.00000000000000	11.92761900000000	0.00000000000000	0.00000000000000	0.00000000000000	0.00000000000000	
3.29498700000000	12.08802300000000	710.52487499999995	41.64973000000000	0.18265300000000	0.00000000000000	0.13428400000000	0.00000000000000	0.00000000000000	0.00000000000000	0.00000000000000	0.00000000000000	0.00000000000000	0.00000000000000	12.04107800000000	0.00000000000000	0.00000000000000	0.00000000000000	0.00000000000000	
3.29665100000000	11.58949300000000	711.36359600000003	41.72675400000000	0.18161900000000	0.00000000000000	0.13426500000000	0.00000000000000	0.00000000000000	0.00000000000000	0.00000000000000	0.00000000000000	0.00000000000000	0.00000000000000	12.15739700000000	0.00000000000000	0.00000000000000	0.00000000000000	0.00000000000000	
3.29831800000000	11.08064400000000	712.21201699999995	41.80314500000000	0.18058100000000	0.00000000000000	0.13424500000000	0.00000000000000	0.00000000000000	0.00000000000000	0.00000000000000	0.00000000000000	0.00000000000000	0.00000000000000	12.27643500000000	0.00000000000000	0.00000000000000	0.00000000000000	0.00000000000000	
3.29998900000000	10.56184100000000	713.06906000000004	41.87866700000000	0.17954200000000	0.00000000000000	0.13422400000000	0.00000000000000	0.00000000000000	0.00000000000000	0.00000000000000	0.00000000000000	0.00000000000000	0.00000000000000	12.39805200000000	0.00000000000000	0.00000000000000	0.00000000000000	0.00000000000000	
3.30164600000000	10.03346800000000	713.93375900000001	41.95310300000000	0.17850000000000	0.00000000000000	0.13420300000000	0.00000000000000	0.00000000000000	0.00000000000000	0.00000000000000	0.00000000000000	0.00000000000000	0.00000000000000	12.52210600000000	0.00000000000000	0.00000000000000	0.00000000000000	0.00000000000000	
3.30331400000000	9.49592700000000	714.80525399999999	42.02625400000000	0.17745700000000	0.00000000000000	0.13418100000000	0.00000000000000	0.00000000000000	0.00000000000000	0.00000000000000	0.00000000000000	0.00000000000000	0.00000000000000	12.64845600000000	0.00000000000000	0.00000000000000	0.00000000000000	0.00000000000000	
3.30498200000000	8.94964000000000	715.68280300000004	42.09794200000000	0.17641300000000	0.00000000000000	0.13415900000000	0.00000000000000	0.00000000000000	0.00000000000000	0.00000000000000	0.00000000000000	0.00000000000000	0.00000000000000	12.77696000000000	0.00000000000000	0.00000000000000	0.00000000000000	0.00000000000000	
3.30664600000000	8.39504400000000	716.56577100000004	42.16800700000000	0.17536900000000	0.00000000000000	0.13413500000000	0.00000000000000	0.00000000000000	0.00000000000000	0.00000000000000	0.00000000000000	0.00000000000000	0.00000000000000	12.90747400000000	0.00000000000000	0.00000000000000	0.00000000000000	0.00000000000000	
3.30831600000000	7.83259100000000	717.45363899999995	42.23631000000000	0.17432500000000	0.00000000000000	0.13411100000000	0.00000000000000	0.00000000000000	0.00000000000000	0.00000000000000	0.00000000000000	0.00000000000000	0.00000000000000	13.03985500000000	0.00000000000000	0.00000000000000	0.00000000000000	0.00000000000000	
3.30998600000000	7.26274400000000	718.34599800000001	42.30273200000000	0.17328300000000	0.00000000000000	0.13408600000000	0.00000000000000	0.00000000000000	0.00000000000000	0.00000000000000	0.00000000000000	0.00000000000000	0.00000000000000	13.17396000000000	0.00000000000000	0.00000000000000	0.00000000000000	0.00000000000000	
3.31165200000000	6.68597700000000	719.24254800000006	42.36717500000000	0.17224100000000	0.00000000000000	0.13406000000000	0.00000000000000	0.00000000000000	0.00000000000000	0.00000000000000	0.00000000000000	0.00000000000000	0.00000000000000	13.30964500000000	0.00000000000000	0.00000000000000	0.00000000000000	0.00000000000000	
3.31331400000000	6.10277600000000	720.14309700000001	42.42956000000000	0.17120100000000	0.00000000000000	0.13403300000000	0.00000000000000	0.00000000000000	0.00000000000000	0.00000000000000	0.00000000000000	0.00000000000000	0.00000000000000	13.44676400000000	0.00000000000000	0.00000000000000	0.00000000000000	0.00000000000000	
3.31498500000000	5.51363200000000	721.04755999999998	42.48982800000000	0.17016200000000	0.00000000000000	0.13400400000000	0.00000000000000	0.00000000000000	0.00000000000000	0.00000000000000	0.00000000000000	0.00000000000000	0.00000000000000	13.58517300000000	0.00000000000000	0.00000000000000	0.00000000000000	0.00000000000000	
